<?xml version="1.0" encoding="UTF-8"?>
<svg width="26px" height="22px" viewBox="0 0 26 22" version="1.1" xmlns="http://www.w3.org/2000/svg" xmlns:xlink="http://www.w3.org/1999/xlink">
    <!-- Generator: sketchtool 52.5 (67469) - http://www.bohemiancoding.com/sketch -->
    <title>77CC60F2-480E-45AA-A363-813AADD37717</title>
    <desc>Created with sketchtool.</desc>
    <g id="New-Payment-Screens" stroke="none" stroke-width="1" fill="none" fill-rule="evenodd">
        <g id="Payment_Form_Card" transform="translate(-450.000000, -588.000000)">
            <g id="Group-14" transform="translate(425.000000, 273.000000)">
                <g id="Group">
                    <g id="Group-38">
                        <g id="Rectangle-2">
                            <g id="menu_li" transform="translate(0.000000, 304.000000)">
                                <g id="menu_bg">
                                    <g id="bank_branch_inactive_icon" transform="translate(24.000000, 9.000000)">
                                        <g id="menu_icon">
                                            <rect id="Rectangle-3" x="0.7" y="0" width="27" height="27"></rect>
                                        </g>
                                        <g id="acccount_default_icon" transform="translate(1.500000, 2.000000)" fill="#FFFFFF">
                                            <path d="M24.884596,20.1426923 L24.2532828,18.5545266 C24.0512626,18.0858876 23.5967172,17.7734615 23.0916667,17.7734615 L22.5361111,17.7734615 L22.5361111,7.41133136 L23.6219697,7.41133136 C24.1017677,7.41133136 24.5058081,7.07286982 24.6068182,6.60423077 C24.7078283,6.13559172 24.4805556,5.64091716 24.0512626,5.43263314 L13.5462121,0.303639053 C12.8896465,-0.0348224852 12.1068182,-0.0348224852 11.3997475,0.303639053 L0.844191919,5.43263314 C0.41489899,5.64091716 0.187626263,6.10955621 0.288636364,6.60423077 C0.389646465,7.09890533 0.793686869,7.43736686 1.27348485,7.43736686 L2.33409091,7.43736686 L2.33409091,17.799497 L1.87954545,17.799497 C1.37449495,17.799497 0.919949495,18.1119231 0.717929293,18.5805621 L0.0866161616,20.1426923 C-0.0648989899,20.5592604 -0.0143939394,21.0018639 0.212878788,21.3663609 C0.440151515,21.730858 0.844191919,21.939142 1.24823232,21.939142 L23.7229798,21.939142 C24.1270202,21.939142 24.5310606,21.730858 24.7583333,21.3663609 C25.0108586,21.0278994 25.0613636,20.5592604 24.884596,20.1426923 Z M1.29873737,6.36991124 L11.8290404,1.24091716 C12.2583333,1.03263314 12.7128788,1.03263314 13.1169192,1.24091716 L23.6472222,6.36991124 L22.0310606,6.36991124 C21.7532828,6.36991124 21.5260101,6.60423077 21.5260101,6.8906213 C21.5260101,6.94269231 21.5260101,6.96872781 21.5512626,6.99476331 C21.5512626,7.02079882 21.5260101,7.07286982 21.5260101,7.09890533 L21.5260101,17.7734615 L19.5058081,17.7734615 L19.5058081,10.5355917 C19.5058081,9.39002959 18.5967172,8.45275148 17.4856061,8.45275148 C16.3744949,8.45275148 15.465404,9.39002959 15.465404,10.5355917 L15.465404,17.799497 L14.455303,17.799497 L14.455303,10.5355917 C14.455303,9.39002959 13.5462121,8.45275148 12.435101,8.45275148 C11.3239899,8.45275148 10.414899,9.39002959 10.414899,10.5355917 L10.414899,17.799497 L9.40479798,17.799497 L9.40479798,10.5355917 C9.40479798,9.39002959 8.49570707,8.45275148 7.38459596,8.45275148 C6.27348485,8.45275148 5.36439394,9.39002959 5.36439394,10.5355917 L5.36439394,17.799497 L3.34419192,17.799497 L3.34419192,7.41133136 L22.384596,7.41133136 C22.6623737,7.41133136 22.8896465,7.17701183 22.8896465,6.8906213 C22.8896465,6.60423077 22.6623737,6.36991124 22.384596,6.36991124 L1.29873737,6.36991124 Z M18.4957071,10.5355917 L18.4957071,17.799497 L16.4755051,17.799497 L16.4755051,10.5355917 C16.4755051,9.96281065 16.9300505,9.4941716 17.4856061,9.4941716 C18.0411616,9.4941716 18.4957071,9.96281065 18.4957071,10.5355917 Z M13.445202,10.5355917 L13.445202,17.799497 L11.425,17.799497 L11.425,10.5355917 C11.425,9.96281065 11.8795455,9.4941716 12.435101,9.4941716 C12.9906566,9.4941716 13.445202,9.96281065 13.445202,10.5355917 Z M8.39469697,10.5355917 L8.39469697,17.799497 L6.37449495,17.799497 L6.37449495,10.5355917 C6.37449495,9.96281065 6.8290404,9.4941716 7.38459596,9.4941716 C7.94015152,9.4941716 8.39469697,9.96281065 8.39469697,10.5355917 Z M23.925,20.7935799 C23.8997475,20.8196154 23.8239899,20.9237574 23.7229798,20.9237574 L1.24823232,20.9237574 C1.1219697,20.9237574 1.07146465,20.8456509 1.04621212,20.7935799 C1.0209596,20.7675444 0.970454545,20.6634024 1.0209596,20.5332249 L1.65227273,18.9971302 C1.70277778,18.8929882 1.80378788,18.8409172 1.90479798,18.8409172 L23.1169192,18.8409172 C23.2179293,18.8409172 23.3189394,18.8929882 23.3694444,18.9971302 L24.0007576,20.5592604 C24.0007576,20.6634024 23.9502525,20.7675444 23.925,20.7935799 Z" id="Shape" fill-rule="nonzero"></path>
                                        </g>
                                    </g>
                                </g>
                            </g>
                        </g>
                    </g>
                </g>
            </g>
        </g>
    </g>
</svg>