<?xml version="1.0" encoding="UTF-8"?>
<svg width="21px" height="21px" viewBox="0 0 21 21" version="1.1" xmlns="http://www.w3.org/2000/svg" xmlns:xlink="http://www.w3.org/1999/xlink">
    <!-- Generator: sketchtool 52.5 (67469) - http://www.bohemiancoding.com/sketch -->
    <title>30903855-4274-4B0D-993D-A21D805775EE</title>
    <desc>Created with sketchtool.</desc>
    <g id="New-Payment-Screens" stroke="none" stroke-width="1" fill="none" fill-rule="evenodd">
        <g id="Payment_Form_Card" transform="translate(-452.000000, -413.000000)">
            <g id="Group-14" transform="translate(425.000000, 273.000000)">
                <g id="Group">
                    <g id="Group-38">
                        <g id="Rectangle-2">
                            <g id="bank_account_inactive_icon" transform="translate(24.000000, 137.000000)">
                                <g id="menu_icon">
                                    <rect id="Rectangle-3" x="0.7" y="0" width="27" height="27"></rect>
                                </g>
                                <g id="security-box" transform="translate(3.857143, 3.851852)" fill="#FFFFFF">
                                    <path d="M18.8664596,0 L0.419254658,0 C0.187313496,0 0,0.187669863 0,0.418679549 L0,18.8405797 C0,19.0715894 0.187313496,19.2592593 0.419254658,19.2592593 L3.77329193,19.2592593 C4.00523309,19.2592593 4.19254658,19.0715894 4.19254658,18.8405797 L4.19254658,15.9098229 L15.0931677,15.9098229 L15.0931677,18.8405797 C15.0931677,19.0715894 15.2804812,19.2592593 15.5124224,19.2592593 L18.8664596,19.2592593 C19.0984008,19.2592593 19.2857143,19.0715894 19.2857143,18.8405797 L19.2857143,0.418679549 C19.2857143,0.187669863 19.0984008,0 18.8664596,0 Z M0.838509317,4.18679549 L3.35403727,4.18679549 L3.35403727,11.7230274 L0.838509317,11.7230274 L0.838509317,4.18679549 Z M3.35403727,18.4219002 L0.838509317,18.4219002 L0.838509317,15.9098229 L3.35403727,15.9098229 L3.35403727,18.4219002 Z M18.447205,18.4219002 L15.931677,18.4219002 L15.931677,15.9098229 L18.447205,15.9098229 L18.447205,18.4219002 Z M18.447205,15.0724638 L0.838509317,15.0724638 L0.838509317,12.5603865 L3.77329193,12.5603865 C4.00523309,12.5603865 4.19254658,12.3727166 4.19254658,12.1417069 L4.19254658,3.76811594 C4.19254658,3.53710626 4.00523309,3.34943639 3.77329193,3.34943639 L0.838509317,3.34943639 L0.838509317,0.837359098 L18.447205,0.837359098 L18.447205,15.0724638 Z M11.3198758,12.5603865 C13.8626307,12.5603865 15.931677,10.4941784 15.931677,7.95491143 C15.931677,5.41564451 13.8626307,3.34943639 11.3198758,3.34943639 C8.77712085,3.34943639 6.70807453,5.41564451 6.70807453,7.95491143 C6.70807453,10.4941784 8.77712085,12.5603865 11.3198758,12.5603865 Z M11.3198758,4.18679549 C13.2589286,4.18679549 14.8591794,5.65503601 15.0683973,7.53623188 L13.3737732,7.53623188 C13.1788853,6.58214132 12.3323921,5.86151369 11.3198758,5.86151369 C10.3073594,5.86151369 9.46086624,6.58214132 9.26597833,7.53623188 L7.57135425,7.53623188 C7.78057218,5.65503601 9.38082298,4.18679549 11.3198758,4.18679549 Z M12.5776398,7.95491143 C12.5776398,8.64732728 12.0132427,9.21095008 11.3198758,9.21095008 C10.6265088,9.21095008 10.0621118,8.64732728 10.0621118,7.95491143 C10.0621118,7.26249558 10.6265088,6.69887279 11.3198758,6.69887279 C12.0132427,6.69887279 12.5776398,7.26249558 12.5776398,7.95491143 Z M9.26597833,8.37359098 C9.46086624,9.32768155 10.3073594,10.0483092 11.3198758,10.0483092 C12.3323921,10.0483092 13.1788853,9.32768155 13.3737732,8.37359098 L15.0683973,8.37359098 C14.8591794,10.2547869 13.2589286,11.7230274 11.3198758,11.7230274 C9.38082298,11.7230274 7.78057218,10.2547869 7.57135425,8.37359098 L9.26597833,8.37359098 Z" id="Combined-Shape" fill-rule="nonzero"></path>
                                </g>
                            </g>
                        </g>
                    </g>
                </g>
            </g>
        </g>
    </g>
</svg>