<?xml version="1.0" encoding="UTF-8"?>
<svg width="26px" height="20px" viewBox="0 0 26 20" version="1.1" xmlns="http://www.w3.org/2000/svg" xmlns:xlink="http://www.w3.org/1999/xlink">
    <!-- Generator: sketchtool 52.5 (67469) - http://www.bohemiancoding.com/sketch -->
    <title>794BB59B-0DE1-4DF7-AA7A-5B72B797CFB7</title>
    <desc>Created with sketchtool.</desc>
    <g id="New-Payment-Screens" stroke="none" stroke-width="1" fill="none" fill-rule="evenodd">
        <g id="Payment_Form_Card_Mobile" transform="translate(-43.000000, -71.000000)">
            <g id="Group-2" transform="translate(10.000000, 11.000000)">
                <g id="Group-15" transform="translate(16.000000, 49.000000)">
                    <g id="menu_inactive_icon" transform="translate(16.000000, 7.000000)">
                        <g id="menu_icon" transform="translate(-1.000000, 0.000000)">
                            <rect id="Rectangle-3" x="1.7" y="0" width="27" height="27"></rect>
                            <g id="active_card_icon" transform="translate(2.000000, 4.000000)" fill="#FFFFFF" fill-rule="nonzero">
                                <path d="M23.4281737,0.473228565 C24.7409165,0.473228565 25.8068608,1.56174372 25.8068608,2.89906084 L25.8068608,16.9240155 C25.8068608,18.2613251 24.7408625,19.3498478 23.4281125,19.3498478 L2.82696297,19.3498478 C1.51422014,19.3498478 0.448275862,18.2613326 0.448275862,16.9240155 L0.448275862,2.89906084 C0.448275862,1.56174372 1.51422014,0.473228565 2.82696297,0.473228565 L23.4281737,0.473228565 Z M23.4281737,1.38231947 L2.82696297,1.38231947 C2.01079531,1.38231947 1.34482759,2.06238876 1.34482759,2.89906084 L1.34482759,16.9240155 C1.34482759,17.7606876 2.01079531,18.4407569 2.82696297,18.4407569 L23.4281125,18.4407569 C24.2442962,18.4407569 24.9103091,17.7606713 24.9103091,16.9240155 L24.9103091,2.89906084 C24.9103091,2.06238876 24.2443413,1.38231947 23.4281737,1.38231947 Z M7.24149064,6.43754193 C8.03542641,6.43754193 8.6814056,7.09713695 8.6814056,7.90794644 L8.6814056,8.90971106 C8.6814056,9.72045807 8.0354876,10.3801156 7.24149064,10.3801156 L5.27950553,10.3801156 C4.48550857,10.3801156 3.83959057,9.72052055 3.83959057,8.90971106 L3.83959057,7.90794644 C3.83959057,7.09719944 4.48550857,6.43754193 5.27950553,6.43754193 L7.24149064,6.43754193 Z M5.80157567,9.44289829 L5.80157567,7.37482171 L5.27950553,7.37482171 C4.9916694,7.37482171 4.7574354,7.61395302 4.7574354,7.90794644 L4.7574354,8.90977355 C4.7574354,9.20376697 4.99160821,9.44289829 5.27950553,9.44289829 L5.80157567,9.44289829 Z M7.76362197,8.90971106 L7.76362197,7.90794644 C7.76362197,7.61395302 7.52938797,7.37482171 7.24155183,7.37475922 L6.71948169,7.37475922 L6.71948169,9.4428358 L7.24155183,9.4428358 C7.52938797,9.4428358 7.76362197,9.20370449 7.76362197,8.90971106 Z M7.24155183,11.9473098 C7.49499938,11.9473098 7.70047424,12.1570731 7.70047424,12.4159497 C7.70047424,12.6748264 7.49499938,12.8845896 7.24155183,12.8845896 L4.29851298,12.8845896 C4.04506543,12.8845896 3.83959057,12.6748264 3.83959057,12.4159497 C3.83959057,12.1570731 4.04506543,11.9473098 4.29851298,11.9473098 L7.24155183,11.9473098 Z M12.1465758,11.9473098 C12.4000233,11.9473098 12.6054982,12.1570731 12.6054982,12.4159497 C12.6054982,12.6748264 12.4000233,12.8845896 12.1465758,12.8845896 L9.20353693,12.8845896 C8.95008938,12.8845896 8.74461452,12.6748264 8.74461452,12.4159497 C8.74461452,12.1570731 8.95008938,11.9473098 9.20353693,11.9473098 L12.1465758,11.9473098 Z M14.1085609,14.4517214 C14.3620696,14.4517214 14.5675445,14.6614846 14.5675445,14.9203613 C14.5675445,15.179238 14.3620696,15.3890012 14.1086221,15.3890012 L4.29851298,15.3890012 C4.04506543,15.3890012 3.83959057,15.179238 3.83959057,14.9203613 C3.83959057,14.6614846 4.04506543,14.4517214 4.29851298,14.4517214 L14.1085609,14.4517214 Z M17.0515997,11.9473098 C17.3050473,11.9473098 17.5105221,12.1570731 17.5105221,12.4159497 C17.5105221,12.6748264 17.3050473,12.8845896 17.0515997,12.8845896 L14.1085609,12.8845896 C13.8551133,12.8845896 13.6496385,12.6748264 13.6496385,12.4159497 C13.6496385,12.1570731 13.8551133,11.9473098 14.1085609,11.9473098 L17.0515997,11.9473098 Z M21.9566237,11.9473098 C22.2100712,11.9473098 22.4155461,12.1570731 22.4155461,12.4159497 C22.4155461,12.6748264 22.2100712,12.8845896 21.9566237,12.8845896 L19.0135848,12.8845896 C18.7601373,12.8845896 18.5546624,12.6748264 18.5546624,12.4159497 C18.5546624,12.1570731 18.7601373,11.9473098 19.0135848,11.9473098 L21.9566237,11.9473098 Z M19.9946386,3.93313037 C21.3295521,3.93313037 22.4155461,5.0421198 22.4155461,6.40529951 C22.4155461,7.76847921 21.3295521,8.87746864 19.9946386,8.87746864 C19.1880977,8.87746864 18.4728518,8.47225135 18.0326535,7.85102232 C17.5925163,8.47218887 16.8772704,8.87746864 16.0706684,8.87746864 C14.735816,8.87746864 13.6497608,7.76847921 13.6497608,6.40529951 C13.6497608,5.0421198 14.7357548,3.93313037 16.0706684,3.93313037 C16.8772092,3.93313037 17.5924551,4.33834766 18.0326535,4.9595767 C18.4727907,4.33841015 19.1880365,3.93313037 19.9946386,3.93313037 Z M16.0706072,7.94018887 C16.8994211,7.94018887 17.5736699,7.25160066 17.5736699,6.40529951 C17.5736699,5.55899836 16.8993599,4.87041015 16.0706072,4.87041015 C15.2418545,4.87041015 14.5675445,5.55899836 14.5675445,6.40529951 C14.5675445,7.25160066 15.2417933,7.94018887 16.0706072,7.94018887 Z M19.9946386,7.94018887 C20.8234524,7.94018887 21.4977013,7.25160066 21.4977013,6.40529951 C21.4977013,5.55899836 20.8233913,4.87041015 19.9946386,4.87041015 C19.1658859,4.87041015 18.4915759,5.55899836 18.4915759,6.40529951 C18.4915759,7.25160066 19.1658247,7.94018887 19.9946386,7.94018887 Z" id="Combined-Shape"></path>
                            </g>
                        </g>
                    </g>
                </g>
            </g>
        </g>
    </g>
</svg>