<?xml version="1.0" encoding="UTF-8"?>
<svg width="24px" height="19px" viewBox="0 0 24 19" version="1.1" xmlns="http://www.w3.org/2000/svg" xmlns:xlink="http://www.w3.org/1999/xlink">
    <!-- Generator: sketchtool 52.5 (67469) - http://www.bohemiancoding.com/sketch -->
    <title>C425F99F-5F8E-4430-8FE7-029FA9E96D51</title>
    <desc>Created with sketchtool.</desc>
    <g id="New-Payment-Screens" stroke="none" stroke-width="1" fill="none" fill-rule="evenodd">
        <g id="Payment_Form_QR_Code_Empty_State" transform="translate(-451.000000, -634.000000)">
            <g id="Group-5-Copy" transform="translate(425.000000, 621.000000)">
                <g id="Internet_Banking_inactive_icon-" transform="translate(24.000000, 9.000000)">
                    <g id="menu_icon">
                        <rect id="Rectangle-3" x="0.7" y="0" width="27" height="27"></rect>
                    </g>
                    <g id="online-money" transform="translate(2.000000, 4.000000)" fill="#FFFFFF">
                        <path d="M13.8691012,10.5288308 L14.253004,10.1496944 C14.6851012,9.72286616 14.6051336,9.32621717 14.5506721,9.17541667 C14.4962105,9.02466414 14.3039676,8.66750253 13.6959028,8.607 L10.2924696,8.26821465 C10.246996,8.26370455 10.2011336,8.26140152 10.1560972,8.26140152 C9.80479352,8.26140152 9.48740081,8.39670455 9.26241296,8.64240909 C9.03436437,8.89147222 8.92869636,9.22421212 8.96493927,9.57931061 L9.30798381,12.9405354 C9.37488259,13.5960354 9.79954656,13.8286414 10.1428826,13.8286414 C10.3184615,13.8286414 10.5871255,13.7699621 10.8699271,13.4906237 L11.2539271,13.1113914 L13.9002915,15.7250429 C14.0721296,15.8947475 14.3006154,15.9882121 14.5435789,15.9882121 C14.7865425,15.9882121 15.0150283,15.8947475 15.186915,15.7250429 L16.5154656,14.4128914 C16.8699271,14.0624949 16.8698785,13.4924949 16.5153198,13.1423864 L13.8691012,10.5288308 Z M14.5437247,14.9354874 L11.614753,12.0427854 C11.5151579,11.9444268 11.3846154,11.8952475 11.2540243,11.8952475 C11.1234818,11.8952475 10.9928907,11.9444268 10.8933441,12.0427854 L10.3015061,12.6272753 L9.98017814,9.47840909 C9.97323077,9.41027778 9.98712551,9.3534697 10.0192874,9.31830051 C10.0565506,9.27756566 10.1143158,9.26907323 10.1561943,9.26907323 C10.1672227,9.26907323 10.1786883,9.26964899 10.1902996,9.27080051 L13.3788016,9.58813889 L12.7869636,10.1726288 C12.5877733,10.3693939 12.5877247,10.6883636 12.7869636,10.8851288 L15.7159352,13.7778308 L14.5437247,14.9354874 Z" id="Shape" fill-rule="nonzero"></path>
                        <path d="M3.11480162,4.38861616 C3.8782834,4.38861616 4.499417,3.77519444 4.499417,3.02119192 C4.499417,2.26718939 3.8782834,1.65376768 3.11480162,1.65376768 C2.35131984,1.65376768 1.73018623,2.26718939 1.73018623,3.02119192 C1.73018623,3.77519444 2.35131984,4.38861616 3.11480162,4.38861616 Z M3.11480162,2.66134343 C3.31574089,2.66134343 3.47917409,2.82274747 3.47917409,3.02119192 C3.47917409,3.21963636 3.31574089,3.3810404 3.11480162,3.3810404 C2.91386235,3.3810404 2.75042915,3.21963636 2.75042915,3.02119192 C2.75042915,2.82274747 2.91391093,2.66134343 3.11480162,2.66134343 Z" id="Shape" fill-rule="nonzero"></path>
                        <path d="M6.44259109,4.38861616 C7.20607287,4.38861616 7.82720648,3.77519444 7.82720648,3.02119192 C7.82720648,2.26718939 7.20607287,1.65376768 6.44259109,1.65376768 C5.67910931,1.65376768 5.05797571,2.26718939 5.05797571,3.02119192 C5.05797571,3.77519444 5.67915789,4.38861616 6.44259109,4.38861616 Z M6.44259109,2.66134343 C6.64353036,2.66134343 6.80696356,2.82274747 6.80696356,3.02119192 C6.80696356,3.21963636 6.64353036,3.3810404 6.44259109,3.3810404 C6.24165182,3.3810404 6.07821862,3.21963636 6.07821862,3.02119192 C6.07821862,2.82274747 6.2417004,2.66134343 6.44259109,2.66134343 Z" id="Shape" fill-rule="nonzero"></path>
                        <path d="M22.5133117,0.0227424242 L1.46681781,0.0227424242 C0.658008097,0.0227424242 0,0.672580808 0,1.47134848 L0,17.5090758 C0,18.3078434 0.658008097,18.9576818 1.46681781,18.9576818 L22.5133117,18.9576818 C23.3221215,18.9576818 23.9801296,18.3078434 23.9801296,17.5090758 L23.9801296,1.47134848 C23.9801781,0.672580808 23.3221215,0.0227424242 22.5133117,0.0227424242 Z M1.46681781,1.03031818 L22.5133117,1.03031818 C22.7595789,1.03031818 22.9598866,1.22813889 22.9598866,1.47130051 L22.9598866,4.85224495 L1.02024291,4.85224495 L1.02024291,1.47134848 C1.02024291,1.22813889 1.22059919,1.03031818 1.46681781,1.03031818 Z M22.5133117,17.9501061 L1.46681781,17.9501061 C1.22055061,17.9501061 1.02024291,17.7522374 1.02024291,17.5090758 L1.02024291,5.85982071 L22.9599352,5.85982071 L22.9599352,17.5090278 C22.9599352,17.7522374 22.7595789,17.9501061 22.5133117,17.9501061 Z" id="Shape" fill-rule="nonzero"></path>
                    </g>
                </g>
            </g>
        </g>
    </g>
</svg>