<?xml version="1.0" encoding="UTF-8"?>
<svg width="23px" height="23px" viewBox="0 0 23 23" version="1.1" xmlns="http://www.w3.org/2000/svg" xmlns:xlink="http://www.w3.org/1999/xlink">
    <!-- Generator: sketchtool 52.5 (67469) - http://www.bohemiancoding.com/sketch -->
    <title>563CD321-FC47-4CB9-B6CB-1DB0ED177F89</title>
    <desc>Created with sketchtool.</desc>
    <g id="New-Payment-Screens" stroke="none" stroke-width="1" fill="none" fill-rule="evenodd">
        <g id="Payment_Form_Card" transform="translate(-451.000000, -544.000000)">
            <g id="Group-14" transform="translate(425.000000, 273.000000)">
                <g id="Group">
                    <g id="Group-38">
                        <g id="Rectangle-2">
                            <g id="menu_li" transform="translate(0.000000, 260.000000)">
                                <g id="menu_bg">
                                    <g id="qrcode_inactive_icon" transform="translate(24.000000, 9.000000)">
                                        <g id="menu_icon">
                                            <rect id="Rectangle-3" x="0.7" y="0" width="27" height="27"></rect>
                                        </g>
                                        <g id="qr_code_inactive" transform="translate(1.567857, 1.888889)" fill="#FFFFFF">
                                            <path d="M1.83214286,23 C1.27985811,23 0.832142857,22.5522847 0.832142857,22 L0.832142857,1.5 C0.832142857,0.94771525 1.27985811,0.5 1.83214286,0.5 L22.3321429,0.5 C22.8844276,0.5 23.3321429,0.94771525 23.3321429,1.5 L23.3321429,22 C23.3321429,22.5522847 22.8844276,23 22.3321429,23 L1.83214286,23 Z M2.41517857,21.9169643 L21.7491071,21.9169643 C22.0252495,21.9169643 22.2491071,21.6931067 22.2491071,21.4169643 L22.2491071,2.08303571 C22.2491071,1.80689334 22.0252495,1.58303571 21.7491071,1.58303571 L2.41517857,1.58303571 C2.1390362,1.58303571 1.91517857,1.80689334 1.91517857,2.08303571 L1.91517857,21.4169643 C1.91517857,21.6931067 2.1390362,21.9169643 2.41517857,21.9169643 Z M4.74704781,9.10236092 L8.77138537,9.10236092 L8.77138537,10.4424731 L4.74704781,10.4424731 L4.74704781,9.10236092 Z M18.1615063,3.74191211 L19.5029522,3.74191211 L19.5029522,5.08202431 L18.1615063,5.08202431 L18.1615063,3.74191211 Z M4.74704781,3.74191211 L6.08849366,3.74191211 L6.08849366,5.08202431 L4.74704781,5.08202431 L4.74704781,3.74191211 Z M4.74704781,17.1430341 L6.08849366,17.1430341 L6.08849366,18.4831463 L4.74704781,18.4831463 L4.74704781,17.1430341 Z M4.74704781,11.7825853 L6.08849366,11.7825853 L6.08849366,13.1226975 L4.74704781,13.1226975 L4.74704781,11.7825853 Z M7.42993952,11.7825853 L8.77138537,11.7825853 L8.77138537,13.1226975 L7.42993952,13.1226975 L7.42993952,11.7825853 Z M14.1371688,6.42213651 L14.1371688,7.76224871 L10.1128312,7.76224871 L10.1128312,3.74191211 L11.4542771,3.74191211 L11.4542771,6.42213651 L14.1371688,6.42213651 Z M10.1128312,9.10236092 L11.4542771,9.10236092 L11.4542771,13.1226975 L10.1128312,13.1226975 L10.1128312,9.10236092 Z M10.1128312,14.4628097 L11.4542771,14.4628097 L11.4542771,18.4831463 L10.1128312,18.4831463 L10.1128312,14.4628097 Z M12.7957229,9.10236092 L15.4786146,9.10236092 L15.4786146,10.4424731 L12.7957229,10.4424731 L12.7957229,9.10236092 Z M18.1615063,13.1226975 L18.1615063,10.4424731 L16.8200605,10.4424731 L16.8200605,9.10236092 L19.5029522,9.10236092 L19.5029522,13.1226975 L18.1615063,13.1226975 Z M12.7957229,11.7825853 L14.1371688,11.7825853 L14.1371688,15.8029219 L12.7957229,15.8029219 L12.7957229,11.7825853 Z M12.7957229,17.1430341 L16.8200605,17.1430341 L16.8200605,18.4831463 L12.7957229,18.4831463 L12.7957229,17.1430341 Z M15.4786146,11.7825853 L16.8200605,11.7825853 L16.8200605,13.1226975 L15.4786146,13.1226975 L15.4786146,11.7825853 Z M15.4786146,14.4628097 L16.8200605,14.4628097 L16.8200605,15.8029219 L15.4786146,15.8029219 L15.4786146,14.4628097 Z M18.1615063,14.4628097 L19.5029522,14.4628097 L19.5029522,18.4831463 L18.1615063,18.4831463 L18.1615063,14.4628097 Z" id="Combined-Shape" fill-rule="nonzero"></path>
                                        </g>
                                    </g>
                                </g>
                            </g>
                        </g>
                    </g>
                </g>
            </g>
        </g>
    </g>
</svg>