<?xml version="1.0" encoding="UTF-8"?>
<svg width="100px" height="100px" viewBox="0 0 464 156" version="1.1" xmlns="http://www.w3.org/2000/svg" xmlns:xlink="http://www.w3.org/1999/xlink">

    <defs></defs>
    <g id="Page-1" stroke="none" stroke-width="1" fill="none" fill-rule="evenodd">
        <g id="Remita_Ellipses">
            <g id="Page-1" transform="translate(14.000000, 6.000000)">
                <path d="M69.0157101,130.697805 C53.2804909,146.425721 27.7676839,146.425721 12.0324647,130.697805 C-3.70275452,114.969888 -3.70275452,89.4689227 12.0324647,73.7410066 C27.7676839,58.0130905 53.2804909,58.0130905 69.0157101,73.7410066 C84.7509293,89.4689227 84.7509293,114.969888 69.0157101,130.697805" id="Fill-13" fill="#F16521" transform="translate(0 1.70667)">
    <animateTransform attributeName="transform" dur="0.8s" type="translate" values="0 15 ; 0 -15; 0 15" repeatCount="indefinite" begin="0.00"></animateTransform>
</path>
                <path d="M69.0157101,73.7423454 C84.7509293,89.4702615 84.7509293,114.971227 69.0157101,130.699143 C53.2804909,146.427059 27.7676839,146.427059 12.0324647,130.699143" id="Fill-15" fill="#D95129" transform="translate(0 1.70667)">
    <animateTransform attributeName="transform" dur="0.8s" type="translate" values="0 15 ; 0 -15; 0 15" repeatCount="indefinite" begin="0.00"></animateTransform>
</path>
                <path d="M231.263125,126.847491 C210.392663,147.708266 176.554174,147.708266 155.683712,126.847491 C134.815929,105.986715 134.815929,72.1639309 155.683712,51.3031556 C176.554174,30.4450579 210.392663,30.4450579 231.263125,51.3031556 C252.133587,72.1639309 252.133587,105.986715 231.263125,126.847491" id="Fill-17" fill="#F16521" transform="translate(0 15.952)">
<animateTransform attributeName="transform" dur="0.8s" type="translate" values="0 18 ; 0 -18; 0 18" repeatCount="indefinite" begin="0.25"></animateTransform>
</path>
                <path d="M231.263125,51.3047622 C252.133587,72.1655375 252.133587,105.988322 231.263125,126.849097 C210.392663,147.707195 176.554174,147.707195 155.683712,126.849097" id="Fill-19" fill="#D95129" transform="translate(0 15.952)">
<animateTransform attributeName="transform" dur="0.8s" type="translate" values="0 18 ; 0 -18; 0 18" repeatCount="indefinite" begin="0.25"></animateTransform>
</path>
                <path d="M415.074006,121.625737 C387.238687,149.448137 342.109092,149.448137 314.268416,121.625737 C286.435776,93.8033372 286.435776,48.692011 314.268416,20.8669337 C342.109092,-6.95546606 387.238687,-6.95546606 415.074006,20.8669337 C442.912003,48.692011 442.912003,93.8033372 415.074006,121.625737" id="Fill-21" fill="#1CA78B" transform="translate(0 -14.1169)">
<animateTransform attributeName="transform" dur="0.8s" type="translate" values="0 23 ; 0 -23; 0 23" repeatCount="indefinite" begin="0.4"></animateTransform>
</path>
                <path d="M415.074006,20.868808 C442.912003,48.6912077 442.912003,93.8025339 415.074006,121.627611 C387.238687,149.450011 342.109092,149.450011 314.268416,121.627611" id="Fill-23" fill="#168972" transform="translate(0 -8.36689)">
<animateTransform attributeName="transform" dur="0.8s" type="translate" values="0 23 ; 0 -23; 0 23" repeatCount="indefinite" begin="0.4"></animateTransform>
</path>
            </g>
        </g>
    </g>
</svg>