<?xml version="1.0" encoding="UTF-8"?>
<svg width="21px" height="24px" viewBox="0 0 21 24" version="1.1" xmlns="http://www.w3.org/2000/svg" xmlns:xlink="http://www.w3.org/1999/xlink">
    <!-- Generator: sketchtool 52.5 (67469) - http://www.bohemiancoding.com/sketch -->
    <title>2EB5EEAD-B105-4CC6-A8FF-EEF11B206105</title>
    <desc>Created with sketchtool.</desc>
    <g id="New-Payment-Screens" stroke="none" stroke-width="1" fill="none" fill-rule="evenodd">
        <g id="Payment_Form_Card" transform="translate(-452.000000, -499.000000)">
            <g id="Group-14" transform="translate(425.000000, 273.000000)">
                <g id="Group">
                    <g id="Group-38">
                        <g id="Rectangle-2">
                            <g id="menu_li" transform="translate(0.000000, 216.000000)">
                                <g id="menu_bg">
                                    <g id="ussd_inactive_icon" transform="translate(24.000000, 9.000000)">
                                        <g id="menu_icon">
                                            <rect id="Rectangle-3" x="0.7" y="0" width="27" height="27"></rect>
                                        </g>
                                        <g id="ussd_inactive" transform="translate(3.567857, 0.962963)" fill="#FFFFFF">
                                            <path d="M12.9905094,10.5549642 L12.9905094,12.0181129 L13.6330049,12.0181129 L13.6330049,12.8621998 L12.9905094,12.8621998 L12.9905094,14.0866428 L11.7698751,14.0866428 L11.2063932,12.8621998 L9.83071656,12.8621998 L9.83071656,14.0866428 L8.97255673,14.0866428 L8.97255673,12.8621998 L7.97626038,12.8621998 L7.97626038,12.0181129 L8.97255673,12.0181129 L8.97255673,10.5549642 L7.97626038,10.5549642 L7.97626038,9.71087734 L8.97255673,9.71087734 L8.97255673,8.42654245 L10.1837678,8.42654245 L10.7798031,9.71087734 L12.1262459,9.71087734 L12.1262459,8.42665017 L12.9905094,8.42665017 L12.9905094,9.71087734 L13.6330049,9.71087734 L13.6330049,10.5549642 L12.9905094,10.5549642 Z M12.1262459,10.5549642 L11.1715277,10.5549642 L11.8505469,12.0181129 L12.1474159,12.0181129 C12.1332365,11.615606 12.1262459,11.3114485 12.1262459,11.1058398 L12.1262459,10.5549642 Z M10.1446164,10.5549642 L9.80719867,10.5549642 C9.82285047,10.9303776 9.83071656,11.219711 9.83071656,11.4230725 L9.83071656,12.0181129 L10.8179492,12.0181129 L10.1446164,10.5549642 Z M16.7423619,15.6752842 L16.7423619,3.96643289 L4.86711757,3.96643289 L4.86711757,7.00809727 L5.02174482,7.00809727 C6.07040456,7.00809727 6.92363859,8.02065686 6.92363859,9.26535112 C6.92363859,9.96848814 6.65132004,10.5975463 6.22532625,11.0118355 C6.63242576,11.4261399 6.89076423,12.040783 6.89076423,12.7257197 C6.89076423,13.4132921 6.6304336,14.030029 6.2206197,14.444378 C6.6304336,14.8587269 6.89076423,15.4754638 6.89076423,16.1630363 C6.89076423,16.8639466 6.62023568,17.4912464 6.19660264,17.9055782 C6.2025234,17.9126787 6.20839731,17.9198343 6.21422376,17.9270444 L14.1840779,17.9270444 C14.2045244,16.6815511 15.1253272,15.6752842 16.2541724,15.6752842 L16.7423619,15.6752842 Z M17.7820267,15.692849 C18.8029847,15.833444 19.5957915,16.8007902 19.5957915,17.969378 L19.5957915,18.0444582 C19.5957915,19.2130868 18.8029292,20.1804598 17.7819196,20.3210019 L17.7819196,22.8703346 C17.7819196,23.430591 17.3326022,23.8745393 16.7783411,23.8745393 L4.83092423,23.8745393 C4.27583449,23.8745393 3.82734569,23.4293181 3.82734569,22.8801099 L3.82734569,21.1317955 L3.25327596,21.1317955 C2.37316421,21.1317955 1.65721006,20.2819994 1.65721006,19.2374473 C1.65721006,18.9435189 1.71390026,18.6650116 1.81498611,18.4165202 C0.81757593,18.3483304 0.0236652509,17.3636808 0.0236652509,16.1630363 C0.0236652509,15.4754515 0.284005172,14.8587049 0.693849771,14.4443558 C0.284019266,14.030007 0.0236652509,13.4132799 0.0236652509,12.7257197 C0.0236652509,11.8551298 0.441029718,11.0981043 1.05078071,10.7216877 C0.770274128,10.328321 0.600947457,9.81987282 0.600947457,9.26535112 C0.600947457,8.02065686 1.4540744,7.00809727 2.50273414,7.00809727 L3.82734569,7.00809727 L3.82734569,1.09875838 C3.82734569,0.536727874 4.27666656,0.0922075541 4.83093193,0.0922075541 L16.7784404,0.0922075541 C17.3335345,0.0922075541 17.7820267,0.540312235 17.7820267,1.09307737 L17.7820267,15.692849 Z M16.7422548,20.338552 L16.2541724,20.338552 C15.4106198,20.338552 14.6832408,19.7766394 14.3609279,18.9728892 L6.64320513,18.9728892 C6.65342917,19.0593599 6.65871627,19.1476845 6.65871627,19.2374473 C6.65871627,20.2819994 5.94276212,21.1317955 5.06265037,21.1317955 L4.86711757,21.1317955 L4.86711757,22.8285868 L16.7422548,22.8285868 L16.7422548,20.338552 Z M16.7423619,2.9205881 L16.7423619,1.63975624 C16.7423619,1.36297181 16.5206777,1.13816007 16.2472163,1.13816007 L5.36226313,1.13816007 C5.09373738,1.13816007 4.86711757,1.36096673 4.86711757,1.63581269 L4.86711757,2.9205881 L16.7423619,2.9205881 Z M10.8046327,21.4914696 C10.3919364,21.4914696 10.0561254,21.1537702 10.0561254,20.738513 C10.0561254,20.3233636 10.3919364,19.9856642 10.8046327,19.9856642 C11.2173289,19.9856642 11.5531399,20.3233636 11.5531399,20.738513 C11.553247,21.1537702 11.2173289,21.4914696 10.8046327,21.4914696 Z M2.50262705,8.08528832 C1.95436423,8.08528832 1.50836527,8.61462 1.50836527,9.26535112 C1.50836527,9.91608223 1.95436423,10.4454139 2.50262705,10.4454139 L5.02163774,10.4454139 C5.56990057,10.4454139 6.01589953,9.91608223 6.01589953,9.26535112 C6.01589953,8.61462 5.56990057,8.08528832 5.02163774,8.08528832 L2.50262705,8.08528832 Z M1.92555901,11.5456569 C1.37729619,11.5456569 0.931297227,12.0749885 0.931297227,12.7257197 C0.931297227,13.3764508 1.37729619,13.9057825 1.92555901,13.9057825 L4.98897755,13.9057825 C5.53724038,13.9057825 5.98323934,13.3764508 5.98323934,12.7257197 C5.98323934,12.0749885 5.53724038,11.5456569 4.98897755,11.5456569 L1.92555901,11.5456569 Z M1.92555901,14.9829735 C1.37729619,14.9829735 0.931297227,15.5123052 0.931297227,16.1630363 C0.931297227,16.8137674 1.37729619,17.3430991 1.92555901,17.3430991 L4.98897755,17.3430991 C5.53724038,17.3430991 5.98323934,16.8137674 5.98323934,16.1630363 C5.98323934,15.5123052 5.53724038,14.9829735 4.98897755,14.9829735 L1.92555901,14.9829735 Z M3.25327596,18.2471856 C2.7931421,18.2471856 2.41888847,18.6914191 2.41888847,19.2374473 C2.41888847,19.7834754 2.7931421,20.227709 3.25327596,20.227709 L5.06265037,20.227709 C5.52278423,20.227709 5.89703786,19.7834754 5.89703786,19.2374473 C5.89703786,18.6914191 5.52267715,18.2471856 5.06265037,18.2471856 L3.25327596,18.2471856 Z M16.2541724,16.7524752 C15.6487275,16.7524752 15.1559334,17.298288 15.1559334,17.969378 L15.1559334,18.0444582 C15.1559334,18.7154405 15.6487275,19.2613609 16.2541724,19.2613609 L17.5251356,19.2613609 C18.1307947,19.2613609 18.6235887,18.7155482 18.6235887,18.0444582 L18.6235887,17.969378 C18.6235887,17.2983957 18.1307947,16.7524752 17.5251356,16.7524752 L16.2541724,16.7524752 Z" id="Combined-Shape" fill-rule="nonzero"></path>
                                        </g>
                                    </g>
                                </g>
                            </g>
                        </g>
                    </g>
                </g>
            </g>
        </g>
    </g>
</svg>